<svg xmlns="http://www.w3.org/2000/svg" width="32" height="32" id="diya"><path style="line-height:normal;text-indent:0;text-align:start;text-decoration-line:none;text-decoration-style:solid;text-decoration-color:#000;text-transform:none;block-progression:tb;isolation:auto;mix-blend-mode:normal" fill-rule="evenodd" d="M838.797 1563.37a.5.5 0 0 0-.48.628c.642 2.397.208 3.61-.406 4.766-.615 1.156-1.51 2.28-1.51 4.105 0 1.813.85 2.986 1.691 3.64a4.287 4.287 0 0 0 1.4.749v1.12c-2.857.022-5.443.226-7.362.56-1.017.176-1.846.383-2.461.636-.308.127-.565.261-.776.44-.21.178-.4.441-.4.767a.5.5 0 0 0 .002.035.5.5 0 0 0 .004.11 11.588 11.588 0 0 0 1.357 3.976 11.118 11.118 0 0 0 .092.217c-.012-.038-.02-.079-.031-.117a11.607 11.607 0 0 0 4.267 4.31 11.622 11.622 0 0 0 11.62 0 11.604 11.604 0 0 0 4.265-4.308l-.031.113a11.118 11.118 0 0 0 .082-.2c.683-1.219 1.16-2.558 1.37-3.976a.5.5 0 0 0 .001-.125.5.5 0 0 0 .002-.035c0-.326-.188-.589-.398-.767-.21-.179-.468-.313-.776-.44-.616-.253-1.444-.46-2.46-.636-1.92-.334-4.508-.538-7.366-.56v-1.257c2.386-1.223 3.337-3.61 3.037-6.111-.316-2.641-1.909-5.45-4.41-7.526a.5.5 0 0 0-.322-.115zm.62 1.986c1.682 1.773 2.887 3.837 3.119 5.773.215 1.793-.245 3.356-1.518 4.434.282-.43.534-.99.524-1.633-.023-1.457-1.403-2.299-1.403-2.299a.5.5 0 0 0-.283-.084.5.5 0 0 0-.33.127s-1.308 1.055-1.285 2.512c.012.752.383 1.331.742 1.724-.09-.058-.177-.11-.275-.187-.66-.514-1.307-1.342-1.307-2.854 0-1.5.722-2.374 1.393-3.636.503-.949.742-2.258.623-3.877zm.488 7.416c.282.27.629.668.637 1.174.008.535-.381 1.06-.664 1.398-.282-.272-.63-.67-.637-1.174-.008-.535.381-1.06.664-1.398zm1.463 6.625c2.458.055 4.674.243 6.318.529.974.17 1.757.374 2.254.578.035.014.04.024.072.04-2.935.505-5.95.11-8.644-1.147zm-2.752 0a14.578 14.578 0 0 1-8.621 1.134c.024-.01.027-.019.052-.029.498-.204 1.28-.409 2.254-.578 1.644-.285 3.858-.472 6.315-.527zm1.377.4c3.152 1.745 6.794 2.308 10.328 1.664a11.003 11.003 0 0 1-.537 1.732 14.567 14.567 0 0 1-9.54-1.757.505.505 0 0 0-.24-.068.505.505 0 0 0-.05 0 .505.505 0 0 0-.213.064 14.562 14.562 0 0 1-9.543 1.742 10.985 10.985 0 0 1-.533-1.729c3.532.648 7.174.09 10.328-1.65zm0 2.627c2.852 1.578 6.105 2.181 9.316 1.807a10.477 10.477 0 0 1-2.488 3.127c-2.344-.046-4.65-.33-6.703-.864a.495.495 0 0 0-.149-.016c-.034 0-.068.01-.101.016-2.056.532-4.362.812-6.705.86a10.477 10.477 0 0 1-2.492-3.137c3.212.38 6.466-.22 9.322-1.793zm0 1.053a1 1 0 0 0-1 1 1 1 0 0 0 1 1 1 1 0 0 0 1-1 1 1 0 0 0-1-1zm-3.75 1.199a.75.75 0 0 0-.75.75.75.75 0 0 0 .75.75.75.75 0 0 0 .75-.75.75.75 0 0 0-.75-.75zm7.5 0a.75.75 0 0 0-.75.75.75.75 0 0 0 .75.75.75.75 0 0 0 .75-.75.75.75 0 0 0-.75-.75zm-10.25.8a.5.5 0 0 0-.5.5.5.5 0 0 0 .5.5.5.5 0 0 0 .5-.5.5.5 0 0 0-.5-.5zm13 0a.5.5 0 0 0-.5.5.5.5 0 0 0 .5.5.5.5 0 0 0 .5-.5.5.5 0 0 0-.5-.5zm-6.5 2.005c1.727.439 3.604.708 5.525.824-.073.045-.14.097-.215.14a10.618 10.618 0 0 1-10.619 0c-.076-.044-.144-.097-.219-.142 1.923-.115 3.799-.384 5.528-.822z" color="#000" font-family="sans-serif" font-weight="400" overflow="visible" transform="translate(-823.493 -1560.87)"></path></svg>